<?xml version="1.0" encoding="UTF-8" standalone="no"?>
<!DOCTYPE svg PUBLIC "-//W3C//DTD SVG 1.1//EN" "http://www.w3.org/Graphics/SVG/1.1/DTD/svg11.dtd">
<svg width="100%" height="100%" viewBox="0 0 1920 1080" version="1.1" xmlns="http://www.w3.org/2000/svg" xmlns:xlink="http://www.w3.org/1999/xlink" xml:space="preserve" xmlns:serif="http://www.serif.com/" style="fill-rule:evenodd;clip-rule:evenodd;stroke-linejoin:round;stroke-miterlimit:2;">
    <g transform="matrix(1.024452,0,0,1.026455,-49,-29.94709)">
        <rect x="0" y="-2" width="1963" height="1134" style="fill:white;"/>
    </g>
    <g transform="matrix(0.54886,0,0,0.54886,986.674267,101.778502)">
        <circle cx="1337" cy="639" r="307" style="fill:rgb(86,170,245);"/>
    </g>
    <g transform="matrix(0.530945,0,0,0.530945,439.127036,292.726384)">
        <circle cx="1337" cy="639" r="307" style="fill:rgb(86,170,245);"/>
    </g>
    <g transform="matrix(0.574919,0,0,0.574919,-463.166124,-141.872964)">
        <circle cx="1337" cy="639" r="307" style="fill:rgb(86,170,245);"/>
    </g>
    <g transform="matrix(0.379479,0,0,0.379479,718.136808,-34.986971)">
        <circle cx="1337" cy="639" r="307" style="fill:rgb(86,170,245);"/>
    </g>
    <g transform="matrix(0.338762,0,0,0.338762,408.074919,789.530945)">
        <circle cx="1337" cy="639" r="307" style="fill:rgb(86,170,245);"/>
    </g>
    <g transform="matrix(0.338762,0,0,0.338762,1065.074919,-72.469055)">
        <circle cx="1337" cy="639" r="307" style="fill:rgb(86,170,245);"/>
    </g>
    <g transform="matrix(0.338762,0,0,0.338762,152.074919,-75.469055)">
        <circle cx="1337" cy="639" r="307" style="fill:rgb(86,170,245);"/>
    </g>
    <g transform="matrix(0.338762,0,0,0.338762,18.074919,299.530945)">
        <circle cx="1337" cy="639" r="307" style="fill:rgb(86,170,245);"/>
    </g>
    <g transform="matrix(0.325733,0,0,0.325733,1363.495114,732.856678)">
        <circle cx="1337" cy="639" r="307" style="fill:rgb(86,170,245);"/>
    </g>
    <g transform="matrix(0.291531,0,0,0.291531,-220.276873,753.211726)">
        <circle cx="1337" cy="639" r="307" style="fill:rgb(86,170,245);"/>
    </g>
    <g transform="matrix(0.291531,0,0,0.291531,-220.276873,753.211726)">
        <circle cx="1337" cy="639" r="307" style="fill:rgb(86,170,245);"/>
    </g>
    <g transform="matrix(0.653094,0,0,0.653094,-349.687296,425.172638)">
        <circle cx="1337" cy="639" r="307" style="fill:rgb(248,164,75);"/>
    </g>
    <g transform="matrix(0.384365,0,0,0.384365,-320.895765,368.390879)">
        <circle cx="1337" cy="639" r="307" style="fill:rgb(248,164,75);"/>
    </g>
    <g transform="matrix(0.324104,0,0,0.324104,955.172638,219.397394)">
        <circle cx="1337" cy="639" r="307" style="fill:rgb(248,164,75);"/>
    </g>
    <g transform="matrix(0.289902,0,0,0.289902,1381.400651,-28.247557)">
        <circle cx="1337" cy="639" r="307" style="fill:rgb(248,164,75);"/>
    </g>
    <g transform="matrix(0.324104,0,0,0.324104,566.172638,146.397394)">
        <circle cx="1337" cy="639" r="307" style="fill:rgb(248,164,75);"/>
    </g>
    <g transform="matrix(0.324104,0,0,0.324104,566.172638,146.397394)">
        <circle cx="1337" cy="639" r="307" style="fill:rgb(248,164,75);"/>
    </g>
    <g transform="matrix(0.359935,0,0,0.359935,390.267101,530.501629)">
        <circle cx="1337" cy="639" r="307" style="fill:rgb(248,164,75);"/>
    </g>
    <g transform="matrix(0.258958,0,0,0.258958,797.273616,763.026059)">
        <circle cx="1337" cy="639" r="307" style="fill:rgb(248,164,75);"/>
    </g>
    <g transform="matrix(0.258958,0,0,0.258958,521.273616,2.026059)">
        <circle cx="1337" cy="639" r="307" style="fill:rgb(248,164,75);"/>
    </g>
    <g transform="matrix(0.653094,0,0,0.653094,601.312704,442.172638)">
        <circle cx="1337" cy="639" r="307" style="fill:rgb(248,164,75);"/>
    </g>
    <g transform="matrix(0.462541,0,0,0.462541,128.583062,161.436482)">
        <circle cx="1337" cy="639" r="307" style="fill:rgb(248,164,75);"/>
    </g>
</svg>
