<?xml version="1.0" encoding="UTF-8" standalone="no"?>
<!DOCTYPE svg PUBLIC "-//W3C//DTD SVG 1.1//EN" "http://www.w3.org/Graphics/SVG/1.1/DTD/svg11.dtd">
<svg width="100%" height="100%" viewBox="0 0 1024 1024" version="1.1" xmlns="http://www.w3.org/2000/svg"
     xmlns:xlink="http://www.w3.org/1999/xlink" xml:space="preserve" xmlns:serif="http://www.serif.com/"
     style="fill-rule:evenodd;clip-rule:evenodd;stroke-linejoin:round;stroke-miterlimit:2;">
    <path d="M585.42,728.511C560.129,739.861 534.883,740.787 509.426,730.584C505.672,729.079 503.343,729.714 500.903,732.907C481.487,758.32 461.937,783.629 442.45,808.988C439.081,813.371 439.613,815.531 445.108,816.486C460.675,819.192 476.249,822.139 491.948,823.751C523.028,826.943 553.808,824.022 584.205,817.006C606.354,811.894 627.776,804.555 648.407,795.045C656.308,791.402 663.718,791.666 671.463,795.242C722.436,818.773 773.449,842.216 824.45,865.685C825.358,866.102 826.264,866.533 827.2,866.879C831.612,868.51 833.141,867.301 832.32,862.577C829.184,844.531 825.949,826.502 822.777,808.462C814.82,763.205 807.028,717.919 798.872,672.698C793.911,645.193 794.777,650.891 805.446,629.087C821.998,595.258 832.786,559.851 836.156,522.157C843.685,437.958 819.699,363.568 767.363,297.807C748.681,274.334 726.715,254.234 702.927,236.128C693.953,229.298 690.303,220.819 692.333,210.006C695.211,194.678 712.791,186.292 726.131,194.661C736.511,201.173 745.961,209.256 755.434,217.11C788.304,244.366 815.885,276.172 837.332,313.205C859.775,351.96 874.935,393.283 882.059,437.569C886.445,464.835 887.728,492.218 885.869,519.715C882.924,563.249 871.368,604.581 853.53,644.311C851.754,648.269 851.106,653.441 851.849,657.716C863.883,726.949 876.228,796.128 888.497,865.32C890.881,878.765 893.33,892.199 895.59,905.664C898.901,925.384 888.491,941.313 869.497,944.233C864.271,945.036 858.092,943.636 853.127,941.468C831.603,932.069 810.343,922.064 789.031,912.183C747.618,892.984 706.189,873.819 664.895,854.366C659.167,851.667 654.482,852.183 648.872,854.491C618.297,867.065 586.385,874.308 553.479,877.115C505.432,881.212 458.376,876.006 412.435,861.333C406.935,859.576 403.669,860.232 399.889,865.199C369.023,905.757 337.766,946.019 306.673,986.405C295.799,1000.529 278.026,1002.153 266.458,989.961C257.952,980.994 257.655,968.015 266.067,956.522C274.725,944.694 283.613,933.033 292.507,921.381C316.156,890.398 339.845,859.445 363.552,828.507C395.467,786.857 427.148,745.022 459.583,703.781C465.638,696.083 466.197,690.96 461.853,682.105C445.851,649.488 449.154,618.406 471.943,589.538C507.856,544.042 543.503,498.336 579.266,452.722C581.836,449.444 584.433,446.188 587.016,442.921C594.674,433.233 606.206,431.182 615.217,437.907C623.988,444.452 625.801,456.811 618.656,466.484C608.467,480.28 597.758,493.694 587.248,507.253C576.433,521.206 565.556,535.112 554.781,549.096C551.588,553.24 552.108,554.405 556.92,556.169C563.793,558.69 570.685,561.191 577.402,564.09C581.025,565.653 583.346,565.402 585.934,562.098C604.937,537.844 624.114,513.726 643.252,489.577C648.304,483.204 654.108,478.053 663.035,479.228C676.533,481.005 684.001,494.925 677.247,507.037C672.904,514.826 667.017,521.791 661.524,528.894C646.445,548.394 631.287,567.835 615.96,587.14C613.207,590.607 613.171,593.127 615.473,596.879C619.548,603.518 623.062,610.523 626.476,617.538C628.808,622.33 629.869,622.715 633.195,618.52C651.823,595.028 670.397,571.494 689,547.983C693.029,542.89 697.093,537.824 701.155,532.756C708.063,524.139 719.017,522.235 727.351,528.19C735.621,534.1 737.969,546.127 731.741,554.958C724.164,565.702 715.95,576.003 707.86,586.377C677.748,624.992 647.584,663.567 617.414,702.138C608.781,713.174 598.538,722.302 585.42,728.511M584.395,624.17C579.825,615.82 573.649,608.996 565.513,603.95C545.514,591.547 518.389,594.451 503.979,610.599C489.85,626.434 487.61,648.334 498.182,667.298C508.503,685.813 529.834,696.134 550.118,692.426C582.306,686.542 598.315,655.286 584.395,624.17Z"
          style="fill:rgb(0,0,0);fill-rule:nonzero;"/>
    <path d="M354.761,384.766C363.873,373.926 371.907,362.476 381.796,352.954C407.824,327.891 438.995,320.831 473.682,330.283C479.586,331.892 482.664,330.834 486.202,326.163C517.474,284.872 548.96,243.743 580.386,202.568C581.901,200.583 583.43,198.607 584.988,196.655C587.584,193.404 586.477,191.374 582.766,190.662C574.268,189.033 565.776,187.263 557.203,186.147C508.726,179.835 461.141,184.317 414.647,199.195C378.708,210.696 345.886,228.509 317.07,252.768C255.216,304.839 216.573,370.799 203.296,450.748C194.244,505.259 200.052,558.525 220.087,610.247C232.535,642.382 248.669,672.379 271.045,698.553C283.331,712.925 297.216,725.99 310.956,739.038C321.949,749.477 323.985,765.458 314.648,776.764C304.841,788.641 288.213,790.777 276.302,781.008C247.088,757.051 222.54,728.904 202.469,696.896C179.964,661.005 163.827,622.435 154.574,581.077C147.114,547.735 144.595,514.025 146.706,479.856C148.858,445.029 155.308,411.162 167.077,378.347C181.945,336.889 203.107,298.968 231.308,265.024C264.153,225.489 303.694,194.393 349.55,171.385C391.715,150.23 436.421,137.664 483.452,133.876C527.518,130.326 570.952,134.179 613.535,146.434C621.29,148.666 621.209,148.571 626.322,141.898C652.865,107.258 679.398,72.61 706.065,38.065C715.211,26.217 731.229,25.548 740.808,36.28C747.649,43.945 747.594,55.526 740.572,64.828C735.453,71.609 730.235,78.314 725.044,85.039C700.315,117.078 675.421,148.992 650.884,181.176C613.416,230.321 576.182,279.643 538.877,328.912C532.342,337.543 526.082,346.385 519.414,354.909C517.197,357.743 517.425,359.685 519.502,362.319C528.539,373.778 534.537,386.718 537.006,401.098C541.322,426.234 535.615,449.372 520.573,469.634C502.015,494.632 483.106,519.43 463.129,543.294C447.908,561.475 427.416,571.119 403.495,573.169C377.229,575.421 354.367,567.286 334.981,550.067C318.172,535.136 308.889,515.793 305.961,493.478C302.347,465.935 310.828,441.867 327.3,420.19C336.266,408.389 345.445,396.749 354.761,384.766Z"
          style="fill:rgb(0,0,0);fill-rule:nonzero;"/>
    <path d="M144.039,512.062C144.01,504.161 144.01,496.54 144.01,488.918C144.325,488.917 144.639,488.916 144.954,488.915C144.954,496.654 144.954,504.392 144.95,512.13C144.95,512.293 144.889,512.455 144.856,512.618C144.594,512.526 144.331,512.434 144.039,512.062Z"
          style="fill:rgb(0,0,0);fill-rule:nonzero;"/>
</svg>
